<svg width="116" height="108" viewBox="0 0 116 108" fill="none" xmlns="http://www.w3.org/2000/svg">
<path d="M75.6637 54C75.6637 68.6364 73.3513 81.751 69.7169 91.0964C67.896 95.7787 65.8018 99.3632 63.6294 101.726C61.4594 104.086 59.4401 105 57.6637 105C55.8873 105 53.868 104.086 51.698 101.726C49.5256 99.3632 47.4313 95.7787 45.6105 91.0964C41.9761 81.751 39.6637 68.6364 39.6637 54C39.6637 39.3636 41.9761 26.249 45.6105 16.9036C47.4313 12.2213 49.5256 8.6368 51.698 6.27408C53.868 3.91392 55.8873 3 57.6637 3C59.4401 3 61.4594 3.91392 63.6294 6.27408C65.8018 8.6368 67.896 12.2213 69.7169 16.9036C73.3513 26.249 75.6637 39.3636 75.6637 54Z" stroke="url(#paint0_linear_2_68)" stroke-width="6"/>
<path d="M65.792 70.0602C52.7328 76.6696 39.9873 80.5284 30.0078 81.5059C25.0079 81.9956 20.8639 81.7457 17.7749 80.8743C14.6891 80.0039 12.9618 78.6149 12.1597 77.0299C11.3575 75.445 11.2611 73.2306 12.387 70.2286C13.5141 67.2234 15.7667 63.7362 19.1221 59.9972C25.8193 52.5344 36.4764 44.549 49.5355 37.9397C62.5947 31.3304 75.3401 27.4715 85.3197 26.4941C90.3196 26.0043 94.4635 26.2543 97.5526 27.1256C100.638 27.996 102.366 29.385 103.168 30.97C103.97 32.5549 104.066 34.7693 102.94 37.7713C101.813 40.7765 99.5608 44.2637 96.2054 48.0027C89.5082 55.4655 78.8511 63.4509 65.792 70.0602Z" stroke="url(#paint1_linear_2_68)" stroke-width="6"/>
<path d="M48.6637 69.5884C35.9882 62.2702 25.7869 53.7103 19.5106 45.8901C16.3661 41.9721 14.309 38.3661 13.349 35.3035C12.39 32.2441 12.6082 30.0383 13.4964 28.4999C14.3846 26.9615 16.1857 25.6697 19.3147 24.9705C22.4471 24.2705 26.5985 24.2491 31.5639 25.0133C41.4744 26.5386 53.9882 31.0933 66.6637 38.4115C79.3392 45.7297 89.5405 54.2896 95.8168 62.1098C98.9613 66.0278 101.018 69.6337 101.978 72.6964C102.937 75.7558 102.719 77.9616 101.831 79.4999C100.943 81.0383 99.1417 82.3302 96.0127 83.0294C92.8803 83.7294 88.7289 83.7508 83.7635 82.9866C73.853 81.4613 61.3392 76.9066 48.6637 69.5884Z" stroke="url(#paint2_linear_2_68)" stroke-width="6"/>
<defs>
<linearGradient id="paint0_linear_2_68" x1="57.6637" y1="0" x2="57.6637" y2="108" gradientUnits="userSpaceOnUse">
<stop stop-color="#EE9AE5"/>
<stop offset="1" stop-color="#5961F9"/>
</linearGradient>
<linearGradient id="paint1_linear_2_68" x1="105.845" y1="29.6153" x2="9.48296" y2="78.3846" gradientUnits="userSpaceOnUse">
<stop stop-color="#EE9AE5"/>
<stop offset="1" stop-color="#5961F9"/>
</linearGradient>
<linearGradient id="paint2_linear_2_68" x1="104.429" y1="80.9999" x2="10.8983" y2="26.9999" gradientUnits="userSpaceOnUse">
<stop stop-color="#EE9AE5"/>
<stop offset="1" stop-color="#5961F9"/>
</linearGradient>
</defs>
</svg>
